<svg width="358" height="126" viewBox="0 0 358 126" fill="none" xmlns="http://www.w3.org/2000/svg">
<path d="M4.18757 10.3382V0.48468H5.74834V10.3382H4.18757ZM0.369263 6.24751V4.57539H9.56665V6.24751H0.369263Z" fill="#7D7C85"/>
<path d="M42.8167 10.3382V0.48468H44.3775V10.3382H42.8167ZM38.9984 6.24751V4.57539H48.1958V6.24751H38.9984Z" fill="#7D7C85"/>
<path d="M81.4454 10.3382V0.48468H83.0061V10.3382H81.4454ZM77.627 6.24751V4.57539H86.8244V6.24751H77.627Z" fill="#7D7C85"/>
<path d="M120.075 10.3382V0.48468H121.635V10.3382H120.075ZM116.256 6.24751V4.57539H125.454V6.24751H116.256Z" fill="#7D7C85"/>
<path d="M158.704 10.3382V0.48468H160.265V10.3382H158.704ZM154.885 6.24751V4.57539H164.083V6.24751H154.885Z" fill="#7D7C85"/>
<path d="M197.332 10.3382V0.48468H198.893V10.3382H197.332ZM193.514 6.24751V4.57539H202.711V6.24751H193.514Z" fill="#7D7C85"/>
<path d="M235.961 10.3382V0.48468H237.522V10.3382H235.961ZM232.143 6.24751V4.57539H241.341V6.24751H232.143Z" fill="#7D7C85"/>
<path d="M274.591 10.3382V0.48468H276.151V10.3382H274.591ZM270.772 6.24751V4.57539H279.97V6.24751H270.772Z" fill="#7D7C85"/>
<path d="M313.22 10.3382V0.48468H314.781V10.3382H313.22ZM309.401 6.24751V4.57539H318.599V6.24751H309.401Z" fill="#7D7C85"/>
<path d="M351.849 10.3382V0.48468H353.41V10.3382H351.849ZM348.031 6.24751V4.57539H357.228V6.24751H348.031Z" fill="#7D7C85"/>
<path d="M4.18757 49.1366V39.283H5.74834V49.1366H4.18757ZM0.369263 45.0459V43.3737H9.56665V45.0459H0.369263Z" fill="#7D7C85"/>
<path d="M42.8167 49.1366V39.283H44.3775V49.1366H42.8167ZM38.9984 45.0459V43.3737H48.1958V45.0459H38.9984Z" fill="#7D7C85"/>
<path d="M81.4454 49.1366V39.283H83.0061V49.1366H81.4454ZM77.627 45.0459V43.3737H86.8244V45.0459H77.627Z" fill="#7D7C85"/>
<path d="M120.075 49.1366V39.283H121.635V49.1366H120.075ZM116.256 45.0459V43.3737H125.454V45.0459H116.256Z" fill="#7D7C85"/>
<path d="M158.704 49.1366V39.283H160.265V49.1366H158.704ZM154.885 45.0459V43.3737H164.083V45.0459H154.885Z" fill="#7D7C85"/>
<path d="M197.332 49.1366V39.283H198.893V49.1366H197.332ZM193.514 45.0459V43.3737H202.711V45.0459H193.514Z" fill="#7D7C85"/>
<path d="M235.961 49.1366V39.283H237.522V49.1366H235.961ZM232.143 45.0459V43.3737H241.341V45.0459H232.143Z" fill="#7D7C85"/>
<path d="M274.591 49.1366V39.283H276.151V49.1366H274.591ZM270.772 45.0459V43.3737H279.97V45.0459H270.772Z" fill="#7D7C85"/>
<path d="M313.22 49.1366V39.283H314.781V49.1366H313.22ZM309.401 45.0459V43.3737H318.599V45.0459H309.401Z" fill="#7D7C85"/>
<path d="M351.849 49.1366V39.283H353.41V49.1366H351.849ZM348.031 45.0459V43.3737H357.228V45.0459H348.031Z" fill="#7D7C85"/>
<path d="M4.18757 87.1959V77.3423H5.74834V87.1959H4.18757ZM0.369263 83.1052V81.4331H9.56665V83.1052H0.369263Z" fill="#7D7C85"/>
<path d="M42.8167 87.1958V77.3423H44.3775V87.1958H42.8167ZM38.9984 83.1051V81.433H48.1958V83.1051H38.9984Z" fill="#7D7C85"/>
<path d="M81.4454 87.1958V77.3423H83.0061V87.1958H81.4454ZM77.627 83.1051V81.433H86.8244V83.1051H77.627Z" fill="#7D7C85"/>
<path d="M120.075 87.1958V77.3423H121.635V87.1958H120.075ZM116.256 83.1051V81.433H125.454V83.1051H116.256Z" fill="#7D7C85"/>
<path d="M158.704 87.1958V77.3423H160.265V87.1958H158.704ZM154.885 83.1051V81.433H164.083V83.1051H154.885Z" fill="#7D7C85"/>
<path d="M197.332 87.1958V77.3423H198.893V87.1958H197.332ZM193.514 83.1051V81.433H202.711V83.1051H193.514Z" fill="#7D7C85"/>
<path d="M235.961 87.1958V77.3423H237.522V87.1958H235.961ZM232.143 83.1051V81.433H241.341V83.1051H232.143Z" fill="#7D7C85"/>
<path d="M274.591 87.1958V77.3423H276.151V87.1958H274.591ZM270.772 83.1051V81.433H279.97V83.1051H270.772Z" fill="#7D7C85"/>
<path d="M313.22 87.1958V77.3423H314.781V87.1958H313.22ZM309.401 83.1051V81.433H318.599V83.1051H309.401Z" fill="#7D7C85"/>
<path d="M351.849 87.1958V77.3423H353.41V87.1958H351.849ZM348.031 83.1051V81.433H357.228V83.1051H348.031Z" fill="#7D7C85"/>
<path d="M4.18757 125.265V115.412H5.74834V125.265H4.18757ZM0.369263 121.175V119.503H9.56665V121.175H0.369263Z" fill="#7D7C85"/>
<path d="M42.8167 125.265V115.412H44.3775V125.265H42.8167ZM38.9984 121.175V119.503H48.1958V121.175H38.9984Z" fill="#7D7C85"/>
<path d="M81.4454 125.265V115.412H83.0061V125.265H81.4454ZM77.627 121.175V119.503H86.8244V121.175H77.627Z" fill="#7D7C85"/>
<path d="M120.075 125.265V115.412H121.635V125.265H120.075ZM116.256 121.175V119.503H125.454V121.175H116.256Z" fill="#7D7C85"/>
<path d="M158.704 125.265V115.412H160.265V125.265H158.704ZM154.885 121.175V119.503H164.083V121.175H154.885Z" fill="#7D7C85"/>
<path d="M197.332 125.265V115.412H198.893V125.265H197.332ZM193.514 121.175V119.503H202.711V121.175H193.514Z" fill="#7D7C85"/>
<path d="M235.961 125.265V115.412H237.522V125.265H235.961ZM232.143 121.175V119.503H241.341V121.175H232.143Z" fill="#7D7C85"/>
<path d="M274.591 125.265V115.412H276.151V125.265H274.591ZM270.772 121.175V119.503H279.97V121.175H270.772Z" fill="#7D7C85"/>
<path d="M313.22 125.265V115.412H314.781V125.265H313.22ZM309.401 121.175V119.503H318.599V121.175H309.401Z" fill="#7D7C85"/>
<path d="M351.849 125.265V115.412H353.41V125.265H351.849ZM348.031 121.175V119.503H357.228V121.175H348.031Z" fill="#7D7C85"/>
</svg>
