<svg width="599" height="73" viewBox="0 0 599 73" fill="none" xmlns="http://www.w3.org/2000/svg">
<path d="M1.40807 12.892V12.0114C2.19879 12.0114 2.7504 11.8456 3.0629 11.5142C3.38013 11.1828 3.53875 10.6288 3.53875 9.85227V7.57955C3.53875 6.92614 3.6003 6.36032 3.72341 5.8821C3.85125 5.40388 4.05722 5.00852 4.34131 4.69602C4.6254 4.38352 5.00419 4.15152 5.47767 4C5.95116 3.84848 6.53591 3.77273 7.23193 3.77273V5.16477C6.68269 5.16477 6.24945 5.25 5.93222 5.42045C5.61972 5.59091 5.39718 5.85606 5.2646 6.21591C5.13676 6.57102 5.07284 7.02557 5.07284 7.57955V10.4205C5.07284 10.7898 5.02313 11.1259 4.9237 11.429C4.829 11.732 4.65144 11.9924 4.39102 12.2102C4.13061 12.428 3.75892 12.5961 3.27597 12.7145C2.79775 12.8329 2.17512 12.892 1.40807 12.892ZM7.23193 21.9545C6.53591 21.9545 5.95116 21.8788 5.47767 21.7273C5.00419 21.5758 4.6254 21.3438 4.34131 21.0312C4.05722 20.7188 3.85125 20.3234 3.72341 19.8452C3.6003 19.367 3.53875 18.8011 3.53875 18.1477V15.875C3.53875 15.0985 3.38013 14.5445 3.0629 14.2131C2.7504 13.8816 2.19879 13.7159 1.40807 13.7159V12.8352C2.17512 12.8352 2.79775 12.8944 3.27597 13.0128C3.75892 13.1312 4.13061 13.2992 4.39102 13.517C4.65144 13.7348 4.829 13.9953 4.9237 14.2983C5.02313 14.6013 5.07284 14.9375 5.07284 15.3068V18.1477C5.07284 18.7017 5.13676 19.1563 5.2646 19.5114C5.39718 19.8665 5.61972 20.1293 5.93222 20.2997C6.24945 20.4749 6.68269 20.5625 7.23193 20.5625V21.9545ZM1.40807 13.7159V12.0114H3.08421V13.7159H1.40807ZM48.1712 12.8352V13.7159C47.3805 13.7159 46.8265 13.8816 46.5093 14.2131C46.1968 14.5445 46.0405 15.0985 46.0405 15.875V18.1477C46.0405 18.8011 45.9766 19.367 45.8488 19.8452C45.7257 20.3234 45.5221 20.7188 45.238 21.0312C44.9539 21.3438 44.5751 21.5758 44.1016 21.7273C43.6281 21.8788 43.0434 21.9545 42.3473 21.9545V20.5625C42.8966 20.5625 43.3275 20.4749 43.64 20.2997C43.9572 20.1293 44.1797 19.8665 44.3076 19.5114C44.4401 19.1563 44.5064 18.7017 44.5064 18.1477V15.3068C44.5064 14.9375 44.5538 14.6013 44.6485 14.2983C44.7479 13.9953 44.9278 13.7348 45.1883 13.517C45.4487 13.2992 45.818 13.1312 46.2962 13.0128C46.7792 12.8944 47.4042 12.8352 48.1712 12.8352ZM42.3473 3.77273C43.0434 3.77273 43.6281 3.84848 44.1016 4C44.5751 4.15152 44.9539 4.38352 45.238 4.69602C45.5221 5.00852 45.7257 5.40388 45.8488 5.8821C45.9766 6.36032 46.0405 6.92614 46.0405 7.57955V9.85227C46.0405 10.6288 46.1968 11.1828 46.5093 11.5142C46.8265 11.8456 47.3805 12.0114 48.1712 12.0114V12.892C47.4042 12.892 46.7792 12.8329 46.2962 12.7145C45.818 12.5961 45.4487 12.428 45.1883 12.2102C44.9278 11.9924 44.7479 11.732 44.6485 11.429C44.5538 11.1259 44.5064 10.7898 44.5064 10.4205V7.57955C44.5064 7.02557 44.4401 6.57102 44.3076 6.21591C44.1797 5.85606 43.9572 5.59091 43.64 5.42045C43.3275 5.25 42.8966 5.16477 42.3473 5.16477V3.77273ZM48.1712 12.0114V13.7159H46.4951V12.0114H48.1712Z" fill="#7D7C85"/>
<path d="M1.40809 61.8388V60.9581C2.19881 60.9581 2.75042 60.7924 3.06292 60.4609C3.38015 60.1295 3.53877 59.5755 3.53877 58.799V56.5263C3.53877 55.8729 3.60032 55.307 3.72343 54.8288C3.85127 54.3506 4.05724 53.9552 4.34133 53.6427C4.62542 53.3302 5.00421 53.0982 5.47769 52.9467C5.95118 52.7952 6.53593 52.7194 7.23195 52.7194V54.1115C6.68271 54.1115 6.24947 54.1967 5.93224 54.3672C5.61974 54.5376 5.3972 54.8028 5.26462 55.1626C5.13678 55.5177 5.07286 55.9723 5.07286 56.5263V59.3672C5.07286 59.7365 5.02315 60.0727 4.92371 60.3757C4.82902 60.6787 4.65146 60.9391 4.39104 61.1569C4.13063 61.3747 3.75894 61.5428 3.27599 61.6612C2.79777 61.7796 2.17513 61.8388 1.40809 61.8388ZM7.23195 70.9013C6.53593 70.9013 5.95118 70.8255 5.47769 70.674C5.00421 70.5225 4.62542 70.2905 4.34133 69.978C4.05724 69.6655 3.85127 69.2701 3.72343 68.7919C3.60032 68.3137 3.53877 67.7479 3.53877 67.0944V64.8217C3.53877 64.0452 3.38015 63.4912 3.06292 63.1598C2.75042 62.8283 2.19881 62.6626 1.40809 62.6626V61.7819C2.17513 61.7819 2.79777 61.8411 3.27599 61.9595C3.75894 62.0779 4.13063 62.246 4.39104 62.4638C4.65146 62.6816 4.82902 62.942 4.92371 63.245C5.02315 63.548 5.07286 63.8842 5.07286 64.2535V67.0944C5.07286 67.6484 5.13678 68.103 5.26462 68.4581C5.3972 68.8132 5.61974 69.076 5.93224 69.2464C6.24947 69.4216 6.68271 69.5092 7.23195 69.5092V70.9013ZM1.40809 62.6626V60.9581H3.08423V62.6626H1.40809ZM48.1712 61.7819V62.6626C47.3805 62.6626 46.8265 62.8283 46.5093 63.1598C46.1968 63.4912 46.0405 64.0452 46.0405 64.8217V67.0944C46.0405 67.7479 45.9766 68.3137 45.8488 68.7919C45.7257 69.2701 45.5221 69.6655 45.238 69.978C44.9539 70.2905 44.5751 70.5225 44.1016 70.674C43.6281 70.8255 43.0434 70.9013 42.3474 70.9013V69.5092C42.8966 69.5092 43.3275 69.4216 43.64 69.2464C43.9572 69.076 44.1798 68.8132 44.3076 68.4581C44.4402 68.103 44.5065 67.6484 44.5065 67.0944V64.2535C44.5065 63.8842 44.5538 63.548 44.6485 63.245C44.7479 62.942 44.9279 62.6816 45.1883 62.4638C45.4487 62.246 45.818 62.0779 46.2962 61.9595C46.7792 61.8411 47.4042 61.7819 48.1712 61.7819ZM42.3474 52.7194C43.0434 52.7194 43.6281 52.7952 44.1016 52.9467C44.5751 53.0982 44.9539 53.3302 45.238 53.6427C45.5221 53.9552 45.7257 54.3506 45.8488 54.8288C45.9766 55.307 46.0405 55.8729 46.0405 56.5263V58.799C46.0405 59.5755 46.1968 60.1295 46.5093 60.4609C46.8265 60.7924 47.3805 60.9581 48.1712 60.9581V61.8388C47.4042 61.8388 46.7792 61.7796 46.2962 61.6612C45.818 61.5428 45.4487 61.3747 45.1883 61.1569C44.9279 60.9391 44.7479 60.6787 44.6485 60.3757C44.5538 60.0727 44.5065 59.7365 44.5065 59.3672V56.5263C44.5065 55.9723 44.4402 55.5177 44.3076 55.1626C44.1798 54.8028 43.9572 54.5376 43.64 54.3672C43.3275 54.1967 42.8966 54.1115 42.3474 54.1115V52.7194ZM48.1712 60.9581V62.6626H46.4951V60.9581H48.1712Z" fill="#7D7C85"/>
<path d="M79.7913 12.892V12.0114C80.5821 12.0114 81.1337 11.8456 81.4462 11.5142C81.7634 11.1828 81.922 10.6288 81.922 9.85227V7.57955C81.922 6.92614 81.9836 6.36032 82.1067 5.8821C82.2345 5.40388 82.4405 5.00852 82.7246 4.69602C83.0087 4.38352 83.3875 4.15152 83.8609 4C84.3344 3.84848 84.9192 3.77273 85.6152 3.77273V5.16477C85.066 5.16477 84.6327 5.25 84.3155 5.42045C84.003 5.59091 83.7805 5.85606 83.6479 6.21591C83.52 6.57102 83.4561 7.02557 83.4561 7.57955V10.4205C83.4561 10.7898 83.4064 11.1259 83.307 11.429C83.2123 11.732 83.0347 11.9924 82.7743 12.2102C82.5139 12.428 82.1422 12.5961 81.6592 12.7145C81.181 12.8329 80.5584 12.892 79.7913 12.892ZM85.6152 21.9545C84.9192 21.9545 84.3344 21.8788 83.8609 21.7273C83.3875 21.5758 83.0087 21.3438 82.7246 21.0312C82.4405 20.7188 82.2345 20.3234 82.1067 19.8452C81.9836 19.367 81.922 18.8011 81.922 18.1477V15.875C81.922 15.0985 81.7634 14.5445 81.4462 14.2131C81.1337 13.8816 80.5821 13.7159 79.7913 13.7159V12.8352C80.5584 12.8352 81.181 12.8944 81.6592 13.0128C82.1422 13.1312 82.5139 13.2992 82.7743 13.517C83.0347 13.7348 83.2123 13.9953 83.307 14.2983C83.4064 14.6013 83.4561 14.9375 83.4561 15.3068V18.1477C83.4561 18.7017 83.52 19.1563 83.6479 19.5114C83.7805 19.8665 84.003 20.1293 84.3155 20.2997C84.6327 20.4749 85.066 20.5625 85.6152 20.5625V21.9545ZM79.7913 13.7159V12.0114H81.4675V13.7159H79.7913ZM126.554 12.8352V13.7159C125.764 13.7159 125.21 13.8816 124.893 14.2131C124.58 14.5445 124.424 15.0985 124.424 15.875V18.1477C124.424 18.8011 124.36 19.367 124.232 19.8452C124.109 20.3234 123.905 20.7188 123.621 21.0312C123.337 21.3438 122.958 21.5758 122.485 21.7273C122.011 21.8788 121.427 21.9545 120.731 21.9545V20.5625C121.28 20.5625 121.711 20.4749 122.023 20.2997C122.34 20.1293 122.563 19.8665 122.691 19.5114C122.823 19.1563 122.89 18.7017 122.89 18.1477V15.3068C122.89 14.9375 122.937 14.6013 123.032 14.2983C123.131 13.9953 123.311 13.7348 123.572 13.517C123.832 13.2992 124.201 13.1312 124.679 13.0128C125.162 12.8944 125.787 12.8352 126.554 12.8352ZM120.731 3.77273C121.427 3.77273 122.011 3.84848 122.485 4C122.958 4.15152 123.337 4.38352 123.621 4.69602C123.905 5.00852 124.109 5.40388 124.232 5.8821C124.36 6.36032 124.424 6.92614 124.424 7.57955V9.85227C124.424 10.6288 124.58 11.1828 124.893 11.5142C125.21 11.8456 125.764 12.0114 126.554 12.0114V12.892C125.787 12.892 125.162 12.8329 124.679 12.7145C124.201 12.5961 123.832 12.428 123.572 12.2102C123.311 11.9924 123.131 11.732 123.032 11.429C122.937 11.1259 122.89 10.7898 122.89 10.4205V7.57955C122.89 7.02557 122.823 6.57102 122.691 6.21591C122.563 5.85606 122.34 5.59091 122.023 5.42045C121.711 5.25 121.28 5.16477 120.731 5.16477V3.77273ZM126.554 12.0114V13.7159H124.878V12.0114H126.554Z" fill="#7D7C85"/>
<path d="M79.7913 61.8388V60.9581C80.5821 60.9581 81.1337 60.7924 81.4462 60.4609C81.7634 60.1295 81.922 59.5755 81.922 58.799V56.5263C81.922 55.8729 81.9836 55.307 82.1067 54.8288C82.2345 54.3506 82.4405 53.9552 82.7246 53.6427C83.0087 53.3302 83.3875 53.0982 83.8609 52.9467C84.3344 52.7952 84.9192 52.7194 85.6152 52.7194V54.1115C85.066 54.1115 84.6327 54.1967 84.3155 54.3672C84.003 54.5376 83.7805 54.8028 83.6479 55.1626C83.52 55.5177 83.4561 55.9723 83.4561 56.5263V59.3672C83.4561 59.7365 83.4064 60.0727 83.307 60.3757C83.2123 60.6787 83.0347 60.9391 82.7743 61.1569C82.5139 61.3747 82.1422 61.5428 81.6592 61.6612C81.181 61.7796 80.5584 61.8388 79.7913 61.8388ZM85.6152 70.9013C84.9192 70.9013 84.3344 70.8255 83.8609 70.674C83.3875 70.5225 83.0087 70.2905 82.7246 69.978C82.4405 69.6655 82.2345 69.2701 82.1067 68.7919C81.9836 68.3137 81.922 67.7479 81.922 67.0944V64.8217C81.922 64.0452 81.7634 63.4912 81.4462 63.1598C81.1337 62.8283 80.5821 62.6626 79.7913 62.6626V61.7819C80.5584 61.7819 81.181 61.8411 81.6592 61.9595C82.1422 62.0779 82.5139 62.246 82.7743 62.4638C83.0347 62.6816 83.2123 62.942 83.307 63.245C83.4064 63.548 83.4561 63.8842 83.4561 64.2535V67.0944C83.4561 67.6484 83.52 68.103 83.6479 68.4581C83.7805 68.8132 84.003 69.076 84.3155 69.2464C84.6327 69.4216 85.066 69.5092 85.6152 69.5092V70.9013ZM79.7913 62.6626V60.9581H81.4675V62.6626H79.7913ZM126.554 61.7819V62.6626C125.764 62.6626 125.21 62.8283 124.893 63.1598C124.58 63.4912 124.424 64.0452 124.424 64.8217V67.0944C124.424 67.7479 124.36 68.3137 124.232 68.7919C124.109 69.2701 123.905 69.6655 123.621 69.978C123.337 70.2905 122.958 70.5225 122.485 70.674C122.011 70.8255 121.427 70.9013 120.731 70.9013V69.5092C121.28 69.5092 121.711 69.4216 122.023 69.2464C122.34 69.076 122.563 68.8132 122.691 68.4581C122.823 68.103 122.89 67.6484 122.89 67.0944V64.2535C122.89 63.8842 122.937 63.548 123.032 63.245C123.131 62.942 123.311 62.6816 123.572 62.4638C123.832 62.246 124.201 62.0779 124.679 61.9595C125.162 61.8411 125.787 61.7819 126.554 61.7819ZM120.731 52.7194C121.427 52.7194 122.011 52.7952 122.485 52.9467C122.958 53.0982 123.337 53.3302 123.621 53.6427C123.905 53.9552 124.109 54.3506 124.232 54.8288C124.36 55.307 124.424 55.8729 124.424 56.5263V58.799C124.424 59.5755 124.58 60.1295 124.893 60.4609C125.21 60.7924 125.764 60.9581 126.554 60.9581V61.8388C125.787 61.8388 125.162 61.7796 124.679 61.6612C124.201 61.5428 123.832 61.3747 123.572 61.1569C123.311 60.9391 123.131 60.6787 123.032 60.3757C122.937 60.0727 122.89 59.7365 122.89 59.3672V56.5263C122.89 55.9723 122.823 55.5177 122.691 55.1626C122.563 54.8028 122.34 54.5376 122.023 54.3672C121.711 54.1967 121.28 54.1115 120.731 54.1115V52.7194ZM126.554 60.9581V62.6626H124.878V60.9581H126.554Z" fill="#7D7C85"/>
<path d="M158.175 12.892V12.0114C158.965 12.0114 159.517 11.8456 159.829 11.5142C160.147 11.1828 160.305 10.6288 160.305 9.85227V7.57955C160.305 6.92614 160.367 6.36032 160.49 5.8821C160.618 5.40388 160.824 5.00852 161.108 4.69602C161.392 4.38352 161.771 4.15152 162.244 4C162.718 3.84848 163.302 3.77273 163.998 3.77273V5.16477C163.449 5.16477 163.016 5.25 162.699 5.42045C162.386 5.59091 162.164 5.85606 162.031 6.21591C161.903 6.57102 161.839 7.02557 161.839 7.57955V10.4205C161.839 10.7898 161.79 11.1259 161.69 11.429C161.596 11.732 161.418 11.9924 161.158 12.2102C160.897 12.428 160.525 12.5961 160.042 12.7145C159.564 12.8329 158.942 12.892 158.175 12.892ZM163.998 21.9545C163.302 21.9545 162.718 21.8788 162.244 21.7273C161.771 21.5758 161.392 21.3438 161.108 21.0312C160.824 20.7188 160.618 20.3234 160.49 19.8452C160.367 19.367 160.305 18.8011 160.305 18.1477V15.875C160.305 15.0985 160.147 14.5445 159.829 14.2131C159.517 13.8816 158.965 13.7159 158.175 13.7159V12.8352C158.942 12.8352 159.564 12.8944 160.042 13.0128C160.525 13.1312 160.897 13.2992 161.158 13.517C161.418 13.7348 161.596 13.9953 161.69 14.2983C161.79 14.6013 161.839 14.9375 161.839 15.3068V18.1477C161.839 18.7017 161.903 19.1563 162.031 19.5114C162.164 19.8665 162.386 20.1293 162.699 20.2997C163.016 20.4749 163.449 20.5625 163.998 20.5625V21.9545ZM158.175 13.7159V12.0114H159.851V13.7159H158.175ZM204.938 12.8352V13.7159C204.147 13.7159 203.593 13.8816 203.276 14.2131C202.963 14.5445 202.807 15.0985 202.807 15.875V18.1477C202.807 18.8011 202.743 19.367 202.615 19.8452C202.492 20.3234 202.289 20.7188 202.004 21.0312C201.72 21.3438 201.342 21.5758 200.868 21.7273C200.395 21.8788 199.81 21.9545 199.114 21.9545V20.5625C199.663 20.5625 200.094 20.4749 200.406 20.2997C200.724 20.1293 200.946 19.8665 201.074 19.5114C201.207 19.1563 201.273 18.7017 201.273 18.1477V15.3068C201.273 14.9375 201.32 14.6013 201.415 14.2983C201.514 13.9953 201.694 13.7348 201.955 13.517C202.215 13.2992 202.585 13.1312 203.063 13.0128C203.546 12.8944 204.171 12.8352 204.938 12.8352ZM199.114 3.77273C199.81 3.77273 200.395 3.84848 200.868 4C201.342 4.15152 201.72 4.38352 202.004 4.69602C202.289 5.00852 202.492 5.40388 202.615 5.8821C202.743 6.36032 202.807 6.92614 202.807 7.57955V9.85227C202.807 10.6288 202.963 11.1828 203.276 11.5142C203.593 11.8456 204.147 12.0114 204.938 12.0114V12.892C204.171 12.892 203.546 12.8329 203.063 12.7145C202.585 12.5961 202.215 12.428 201.955 12.2102C201.694 11.9924 201.514 11.732 201.415 11.429C201.32 11.1259 201.273 10.7898 201.273 10.4205V7.57955C201.273 7.02557 201.207 6.57102 201.074 6.21591C200.946 5.85606 200.724 5.59091 200.406 5.42045C200.094 5.25 199.663 5.16477 199.114 5.16477V3.77273ZM204.938 12.0114V13.7159H203.262V12.0114H204.938Z" fill="#7D7C85"/>
<path d="M158.175 61.8388V60.9581C158.965 60.9581 159.517 60.7924 159.829 60.4609C160.147 60.1295 160.305 59.5755 160.305 58.799V56.5263C160.305 55.8729 160.367 55.307 160.49 54.8288C160.618 54.3506 160.824 53.9552 161.108 53.6427C161.392 53.3302 161.771 53.0982 162.244 52.9467C162.718 52.7952 163.302 52.7194 163.998 52.7194V54.1115C163.449 54.1115 163.016 54.1967 162.699 54.3672C162.386 54.5376 162.164 54.8028 162.031 55.1626C161.903 55.5177 161.839 55.9723 161.839 56.5263V59.3672C161.839 59.7365 161.79 60.0727 161.69 60.3757C161.596 60.6787 161.418 60.9391 161.158 61.1569C160.897 61.3747 160.525 61.5428 160.042 61.6612C159.564 61.7796 158.942 61.8388 158.175 61.8388ZM163.998 70.9013C163.302 70.9013 162.718 70.8255 162.244 70.674C161.771 70.5225 161.392 70.2905 161.108 69.978C160.824 69.6655 160.618 69.2701 160.49 68.7919C160.367 68.3137 160.305 67.7479 160.305 67.0944V64.8217C160.305 64.0452 160.147 63.4912 159.829 63.1598C159.517 62.8283 158.965 62.6626 158.175 62.6626V61.7819C158.942 61.7819 159.564 61.8411 160.042 61.9595C160.525 62.0779 160.897 62.246 161.158 62.4638C161.418 62.6816 161.596 62.942 161.69 63.245C161.79 63.548 161.839 63.8842 161.839 64.2535V67.0944C161.839 67.6484 161.903 68.103 162.031 68.4581C162.164 68.8132 162.386 69.076 162.699 69.2464C163.016 69.4216 163.449 69.5092 163.998 69.5092V70.9013ZM158.175 62.6626V60.9581H159.851V62.6626H158.175ZM204.938 61.7819V62.6626C204.147 62.6626 203.593 62.8283 203.276 63.1598C202.963 63.4912 202.807 64.0452 202.807 64.8217V67.0944C202.807 67.7479 202.743 68.3137 202.615 68.7919C202.492 69.2701 202.289 69.6655 202.004 69.978C201.72 70.2905 201.342 70.5225 200.868 70.674C200.395 70.8255 199.81 70.9013 199.114 70.9013V69.5092C199.663 69.5092 200.094 69.4216 200.406 69.2464C200.724 69.076 200.946 68.8132 201.074 68.4581C201.207 68.103 201.273 67.6484 201.273 67.0944V64.2535C201.273 63.8842 201.32 63.548 201.415 63.245C201.514 62.942 201.694 62.6816 201.955 62.4638C202.215 62.246 202.585 62.0779 203.063 61.9595C203.546 61.8411 204.171 61.7819 204.938 61.7819ZM199.114 52.7194C199.81 52.7194 200.395 52.7952 200.868 52.9467C201.342 53.0982 201.72 53.3302 202.004 53.6427C202.289 53.9552 202.492 54.3506 202.615 54.8288C202.743 55.307 202.807 55.8729 202.807 56.5263V58.799C202.807 59.5755 202.963 60.1295 203.276 60.4609C203.593 60.7924 204.147 60.9581 204.938 60.9581V61.8388C204.171 61.8388 203.546 61.7796 203.063 61.6612C202.585 61.5428 202.215 61.3747 201.955 61.1569C201.694 60.9391 201.514 60.6787 201.415 60.3757C201.32 60.0727 201.273 59.7365 201.273 59.3672V56.5263C201.273 55.9723 201.207 55.5177 201.074 55.1626C200.946 54.8028 200.724 54.5376 200.406 54.3672C200.094 54.1967 199.663 54.1115 199.114 54.1115V52.7194ZM204.938 60.9581V62.6626H203.262V60.9581H204.938Z" fill="#7D7C85"/>
<path d="M236.558 12.892V12.0114C237.349 12.0114 237.9 11.8456 238.213 11.5142C238.53 11.1828 238.689 10.6288 238.689 9.85227V7.57955C238.689 6.92614 238.75 6.36032 238.873 5.8821C239.001 5.40388 239.207 5.00852 239.491 4.69602C239.775 4.38352 240.154 4.15152 240.627 4C241.101 3.84848 241.686 3.77273 242.382 3.77273V5.16477C241.832 5.16477 241.399 5.25 241.082 5.42045C240.769 5.59091 240.547 5.85606 240.414 6.21591C240.287 6.57102 240.223 7.02557 240.223 7.57955V10.4205C240.223 10.7898 240.173 11.1259 240.073 11.429C239.979 11.732 239.801 11.9924 239.541 12.2102C239.28 12.428 238.909 12.5961 238.426 12.7145C237.948 12.8329 237.325 12.892 236.558 12.892ZM242.382 21.9545C241.686 21.9545 241.101 21.8788 240.627 21.7273C240.154 21.5758 239.775 21.3438 239.491 21.0312C239.207 20.7188 239.001 20.3234 238.873 19.8452C238.75 19.367 238.689 18.8011 238.689 18.1477V15.875C238.689 15.0985 238.53 14.5445 238.213 14.2131C237.9 13.8816 237.349 13.7159 236.558 13.7159V12.8352C237.325 12.8352 237.948 12.8944 238.426 13.0128C238.909 13.1312 239.28 13.2992 239.541 13.517C239.801 13.7348 239.979 13.9953 240.073 14.2983C240.173 14.6013 240.223 14.9375 240.223 15.3068V18.1477C240.223 18.7017 240.287 19.1563 240.414 19.5114C240.547 19.8665 240.769 20.1293 241.082 20.2997C241.399 20.4749 241.832 20.5625 242.382 20.5625V21.9545ZM236.558 13.7159V12.0114H238.234V13.7159H236.558ZM283.321 12.8352V13.7159C282.53 13.7159 281.976 13.8816 281.659 14.2131C281.347 14.5445 281.19 15.0985 281.19 15.875V18.1477C281.19 18.8011 281.126 19.367 280.999 19.8452C280.875 20.3234 280.672 20.7188 280.388 21.0312C280.104 21.3438 279.725 21.5758 279.251 21.7273C278.778 21.8788 278.193 21.9545 277.497 21.9545V20.5625C278.046 20.5625 278.477 20.4749 278.79 20.2997C279.107 20.1293 279.33 19.8665 279.457 19.5114C279.59 19.1563 279.656 18.7017 279.656 18.1477V15.3068C279.656 14.9375 279.704 14.6013 279.798 14.2983C279.898 13.9953 280.078 13.7348 280.338 13.517C280.598 13.2992 280.968 13.1312 281.446 13.0128C281.929 12.8944 282.554 12.8352 283.321 12.8352ZM277.497 3.77273C278.193 3.77273 278.778 3.84848 279.251 4C279.725 4.15152 280.104 4.38352 280.388 4.69602C280.672 5.00852 280.875 5.40388 280.999 5.8821C281.126 6.36032 281.19 6.92614 281.19 7.57955V9.85227C281.19 10.6288 281.347 11.1828 281.659 11.5142C281.976 11.8456 282.53 12.0114 283.321 12.0114V12.892C282.554 12.892 281.929 12.8329 281.446 12.7145C280.968 12.5961 280.598 12.428 280.338 12.2102C280.078 11.9924 279.898 11.732 279.798 11.429C279.704 11.1259 279.656 10.7898 279.656 10.4205V7.57955C279.656 7.02557 279.59 6.57102 279.457 6.21591C279.33 5.85606 279.107 5.59091 278.79 5.42045C278.477 5.25 278.046 5.16477 277.497 5.16477V3.77273ZM283.321 12.0114V13.7159H281.645V12.0114H283.321Z" fill="#7D7C85"/>
<path d="M236.558 61.8388V60.9581C237.349 60.9581 237.9 60.7924 238.213 60.4609C238.53 60.1295 238.689 59.5755 238.689 58.799V56.5263C238.689 55.8729 238.75 55.307 238.873 54.8288C239.001 54.3506 239.207 53.9552 239.491 53.6427C239.775 53.3302 240.154 53.0982 240.627 52.9467C241.101 52.7952 241.686 52.7194 242.382 52.7194V54.1115C241.832 54.1115 241.399 54.1967 241.082 54.3672C240.769 54.5376 240.547 54.8028 240.414 55.1626C240.287 55.5177 240.223 55.9723 240.223 56.5263V59.3672C240.223 59.7365 240.173 60.0727 240.073 60.3757C239.979 60.6787 239.801 60.9391 239.541 61.1569C239.28 61.3747 238.909 61.5428 238.426 61.6612C237.948 61.7796 237.325 61.8388 236.558 61.8388ZM242.382 70.9013C241.686 70.9013 241.101 70.8255 240.627 70.674C240.154 70.5225 239.775 70.2905 239.491 69.978C239.207 69.6655 239.001 69.2701 238.873 68.7919C238.75 68.3137 238.689 67.7479 238.689 67.0944V64.8217C238.689 64.0452 238.53 63.4912 238.213 63.1598C237.9 62.8283 237.349 62.6626 236.558 62.6626V61.7819C237.325 61.7819 237.948 61.8411 238.426 61.9595C238.909 62.0779 239.28 62.246 239.541 62.4638C239.801 62.6816 239.979 62.942 240.073 63.245C240.173 63.548 240.223 63.8842 240.223 64.2535V67.0944C240.223 67.6484 240.287 68.103 240.414 68.4581C240.547 68.8132 240.769 69.076 241.082 69.2464C241.399 69.4216 241.832 69.5092 242.382 69.5092V70.9013ZM236.558 62.6626V60.9581H238.234V62.6626H236.558ZM283.321 61.7819V62.6626C282.53 62.6626 281.976 62.8283 281.659 63.1598C281.347 63.4912 281.19 64.0452 281.19 64.8217V67.0944C281.19 67.7479 281.126 68.3137 280.999 68.7919C280.875 69.2701 280.672 69.6655 280.388 69.978C280.104 70.2905 279.725 70.5225 279.251 70.674C278.778 70.8255 278.193 70.9013 277.497 70.9013V69.5092C278.046 69.5092 278.477 69.4216 278.79 69.2464C279.107 69.076 279.33 68.8132 279.457 68.4581C279.59 68.103 279.656 67.6484 279.656 67.0944V64.2535C279.656 63.8842 279.704 63.548 279.798 63.245C279.898 62.942 280.078 62.6816 280.338 62.4638C280.598 62.246 280.968 62.0779 281.446 61.9595C281.929 61.8411 282.554 61.7819 283.321 61.7819ZM277.497 52.7194C278.193 52.7194 278.778 52.7952 279.251 52.9467C279.725 53.0982 280.104 53.3302 280.388 53.6427C280.672 53.9552 280.875 54.3506 280.999 54.8288C281.126 55.307 281.19 55.8729 281.19 56.5263V58.799C281.19 59.5755 281.347 60.1295 281.659 60.4609C281.976 60.7924 282.53 60.9581 283.321 60.9581V61.8388C282.554 61.8388 281.929 61.7796 281.446 61.6612C280.968 61.5428 280.598 61.3747 280.338 61.1569C280.078 60.9391 279.898 60.6787 279.798 60.3757C279.704 60.0727 279.656 59.7365 279.656 59.3672V56.5263C279.656 55.9723 279.59 55.5177 279.457 55.1626C279.33 54.8028 279.107 54.5376 278.79 54.3672C278.477 54.1967 278.046 54.1115 277.497 54.1115V52.7194ZM283.321 60.9581V62.6626H281.645V60.9581H283.321Z" fill="#7D7C85"/>
<path d="M314.941 12.892V12.0114C315.732 12.0114 316.283 11.8456 316.596 11.5142C316.913 11.1828 317.072 10.6288 317.072 9.85227V7.57955C317.072 6.92614 317.133 6.36032 317.256 5.8821C317.384 5.40388 317.59 5.00852 317.874 4.69602C318.158 4.38352 318.537 4.15152 319.011 4C319.484 3.84848 320.069 3.77273 320.765 3.77273V5.16477C320.216 5.16477 319.783 5.25 319.465 5.42045C319.153 5.59091 318.93 5.85606 318.798 6.21591C318.67 6.57102 318.606 7.02557 318.606 7.57955V10.4205C318.606 10.7898 318.556 11.1259 318.457 11.429C318.362 11.732 318.184 11.9924 317.924 12.2102C317.664 12.428 317.292 12.5961 316.809 12.7145C316.331 12.8329 315.708 12.892 314.941 12.892ZM320.765 21.9545C320.069 21.9545 319.484 21.8788 319.011 21.7273C318.537 21.5758 318.158 21.3438 317.874 21.0312C317.59 20.7188 317.384 20.3234 317.256 19.8452C317.133 19.367 317.072 18.8011 317.072 18.1477V15.875C317.072 15.0985 316.913 14.5445 316.596 14.2131C316.283 13.8816 315.732 13.7159 314.941 13.7159V12.8352C315.708 12.8352 316.331 12.8944 316.809 13.0128C317.292 13.1312 317.664 13.2992 317.924 13.517C318.184 13.7348 318.362 13.9953 318.457 14.2983C318.556 14.6013 318.606 14.9375 318.606 15.3068V18.1477C318.606 18.7017 318.67 19.1563 318.798 19.5114C318.93 19.8665 319.153 20.1293 319.465 20.2997C319.783 20.4749 320.216 20.5625 320.765 20.5625V21.9545ZM314.941 13.7159V12.0114H316.617V13.7159H314.941ZM361.704 12.8352V13.7159C360.914 13.7159 360.36 13.8816 360.042 14.2131C359.73 14.5445 359.574 15.0985 359.574 15.875V18.1477C359.574 18.8011 359.51 19.367 359.382 19.8452C359.259 20.3234 359.055 20.7188 358.771 21.0312C358.487 21.3438 358.108 21.5758 357.635 21.7273C357.161 21.8788 356.576 21.9545 355.88 21.9545V20.5625C356.43 20.5625 356.861 20.4749 357.173 20.2997C357.49 20.1293 357.713 19.8665 357.841 19.5114C357.973 19.1563 358.039 18.7017 358.039 18.1477V15.3068C358.039 14.9375 358.087 14.6013 358.182 14.2983C358.281 13.9953 358.461 13.7348 358.721 13.517C358.982 13.2992 359.351 13.1312 359.829 13.0128C360.312 12.8944 360.937 12.8352 361.704 12.8352ZM355.88 3.77273C356.576 3.77273 357.161 3.84848 357.635 4C358.108 4.15152 358.487 4.38352 358.771 4.69602C359.055 5.00852 359.259 5.40388 359.382 5.8821C359.51 6.36032 359.574 6.92614 359.574 7.57955V9.85227C359.574 10.6288 359.73 11.1828 360.042 11.5142C360.36 11.8456 360.914 12.0114 361.704 12.0114V12.892C360.937 12.892 360.312 12.8329 359.829 12.7145C359.351 12.5961 358.982 12.428 358.721 12.2102C358.461 11.9924 358.281 11.732 358.182 11.429C358.087 11.1259 358.039 10.7898 358.039 10.4205V7.57955C358.039 7.02557 357.973 6.57102 357.841 6.21591C357.713 5.85606 357.49 5.59091 357.173 5.42045C356.861 5.25 356.43 5.16477 355.88 5.16477V3.77273ZM361.704 12.0114V13.7159H360.028V12.0114H361.704Z" fill="#7D7C85"/>
<path d="M314.941 61.8388V60.9581C315.732 60.9581 316.283 60.7924 316.596 60.4609C316.913 60.1295 317.072 59.5755 317.072 58.799V56.5263C317.072 55.8729 317.133 55.307 317.256 54.8288C317.384 54.3506 317.59 53.9552 317.874 53.6427C318.158 53.3302 318.537 53.0982 319.011 52.9467C319.484 52.7952 320.069 52.7194 320.765 52.7194V54.1115C320.216 54.1115 319.783 54.1967 319.465 54.3672C319.153 54.5376 318.93 54.8028 318.798 55.1626C318.67 55.5177 318.606 55.9723 318.606 56.5263V59.3672C318.606 59.7365 318.556 60.0727 318.457 60.3757C318.362 60.6787 318.184 60.9391 317.924 61.1569C317.664 61.3747 317.292 61.5428 316.809 61.6612C316.331 61.7796 315.708 61.8388 314.941 61.8388ZM320.765 70.9013C320.069 70.9013 319.484 70.8255 319.011 70.674C318.537 70.5225 318.158 70.2905 317.874 69.978C317.59 69.6655 317.384 69.2701 317.256 68.7919C317.133 68.3137 317.072 67.7479 317.072 67.0944V64.8217C317.072 64.0452 316.913 63.4912 316.596 63.1598C316.283 62.8283 315.732 62.6626 314.941 62.6626V61.7819C315.708 61.7819 316.331 61.8411 316.809 61.9595C317.292 62.0779 317.664 62.246 317.924 62.4638C318.184 62.6816 318.362 62.942 318.457 63.245C318.556 63.548 318.606 63.8842 318.606 64.2535V67.0944C318.606 67.6484 318.67 68.103 318.798 68.4581C318.93 68.8132 319.153 69.076 319.465 69.2464C319.783 69.4216 320.216 69.5092 320.765 69.5092V70.9013ZM314.941 62.6626V60.9581H316.617V62.6626H314.941ZM361.704 61.7819V62.6626C360.914 62.6626 360.36 62.8283 360.042 63.1598C359.73 63.4912 359.574 64.0452 359.574 64.8217V67.0944C359.574 67.7479 359.51 68.3137 359.382 68.7919C359.259 69.2701 359.055 69.6655 358.771 69.978C358.487 70.2905 358.108 70.5225 357.635 70.674C357.161 70.8255 356.576 70.9013 355.88 70.9013V69.5092C356.43 69.5092 356.861 69.4216 357.173 69.2464C357.49 69.076 357.713 68.8132 357.841 68.4581C357.973 68.103 358.039 67.6484 358.039 67.0944V64.2535C358.039 63.8842 358.087 63.548 358.182 63.245C358.281 62.942 358.461 62.6816 358.721 62.4638C358.982 62.246 359.351 62.0779 359.829 61.9595C360.312 61.8411 360.937 61.7819 361.704 61.7819ZM355.88 52.7194C356.576 52.7194 357.161 52.7952 357.635 52.9467C358.108 53.0982 358.487 53.3302 358.771 53.6427C359.055 53.9552 359.259 54.3506 359.382 54.8288C359.51 55.307 359.574 55.8729 359.574 56.5263V58.799C359.574 59.5755 359.73 60.1295 360.042 60.4609C360.36 60.7924 360.914 60.9581 361.704 60.9581V61.8388C360.937 61.8388 360.312 61.7796 359.829 61.6612C359.351 61.5428 358.982 61.3747 358.721 61.1569C358.461 60.9391 358.281 60.6787 358.182 60.3757C358.087 60.0727 358.039 59.7365 358.039 59.3672V56.5263C358.039 55.9723 357.973 55.5177 357.841 55.1626C357.713 54.8028 357.49 54.5376 357.173 54.3672C356.861 54.1967 356.43 54.1115 355.88 54.1115V52.7194ZM361.704 60.9581V62.6626H360.028V60.9581H361.704Z" fill="#7D7C85"/>
<path d="M393.324 12.892V12.0114C394.115 12.0114 394.667 11.8456 394.979 11.5142C395.296 11.1828 395.455 10.6288 395.455 9.85227V7.57955C395.455 6.92614 395.517 6.36032 395.64 5.8821C395.768 5.40388 395.974 5.00852 396.258 4.69602C396.542 4.38352 396.92 4.15152 397.394 4C397.867 3.84848 398.452 3.77273 399.148 3.77273V5.16477C398.599 5.16477 398.166 5.25 397.849 5.42045C397.536 5.59091 397.313 5.85606 397.181 6.21591C397.053 6.57102 396.989 7.02557 396.989 7.57955V10.4205C396.989 10.7898 396.939 11.1259 396.84 11.429C396.745 11.732 396.568 11.9924 396.307 12.2102C396.047 12.428 395.675 12.5961 395.192 12.7145C394.714 12.8329 394.091 12.892 393.324 12.892ZM399.148 21.9545C398.452 21.9545 397.867 21.8788 397.394 21.7273C396.92 21.5758 396.542 21.3438 396.258 21.0312C395.974 20.7188 395.768 20.3234 395.64 19.8452C395.517 19.367 395.455 18.8011 395.455 18.1477V15.875C395.455 15.0985 395.296 14.5445 394.979 14.2131C394.667 13.8816 394.115 13.7159 393.324 13.7159V12.8352C394.091 12.8352 394.714 12.8944 395.192 13.0128C395.675 13.1312 396.047 13.2992 396.307 13.517C396.568 13.7348 396.745 13.9953 396.84 14.2983C396.939 14.6013 396.989 14.9375 396.989 15.3068V18.1477C396.989 18.7017 397.053 19.1563 397.181 19.5114C397.313 19.8665 397.536 20.1293 397.849 20.2997C398.166 20.4749 398.599 20.5625 399.148 20.5625V21.9545ZM393.324 13.7159V12.0114H395V13.7159H393.324ZM440.087 12.8352V13.7159C439.297 13.7159 438.743 13.8816 438.426 14.2131C438.113 14.5445 437.957 15.0985 437.957 15.875V18.1477C437.957 18.8011 437.893 19.367 437.765 19.8452C437.642 20.3234 437.438 20.7188 437.154 21.0312C436.87 21.3438 436.491 21.5758 436.018 21.7273C435.544 21.8788 434.96 21.9545 434.264 21.9545V20.5625C434.813 20.5625 435.244 20.4749 435.556 20.2997C435.873 20.1293 436.096 19.8665 436.224 19.5114C436.356 19.1563 436.423 18.7017 436.423 18.1477V15.3068C436.423 14.9375 436.47 14.6013 436.565 14.2983C436.664 13.9953 436.844 13.7348 437.105 13.517C437.365 13.2992 437.734 13.1312 438.212 13.0128C438.695 12.8944 439.32 12.8352 440.087 12.8352ZM434.264 3.77273C434.96 3.77273 435.544 3.84848 436.018 4C436.491 4.15152 436.87 4.38352 437.154 4.69602C437.438 5.00852 437.642 5.40388 437.765 5.8821C437.893 6.36032 437.957 6.92614 437.957 7.57955V9.85227C437.957 10.6288 438.113 11.1828 438.426 11.5142C438.743 11.8456 439.297 12.0114 440.087 12.0114V12.892C439.32 12.892 438.695 12.8329 438.212 12.7145C437.734 12.5961 437.365 12.428 437.105 12.2102C436.844 11.9924 436.664 11.732 436.565 11.429C436.47 11.1259 436.423 10.7898 436.423 10.4205V7.57955C436.423 7.02557 436.356 6.57102 436.224 6.21591C436.096 5.85606 435.873 5.59091 435.556 5.42045C435.244 5.25 434.813 5.16477 434.264 5.16477V3.77273ZM440.087 12.0114V13.7159H438.411V12.0114H440.087Z" fill="#7D7C85"/>
<path d="M393.324 61.8388V60.9581C394.115 60.9581 394.667 60.7924 394.979 60.4609C395.296 60.1295 395.455 59.5755 395.455 58.799V56.5263C395.455 55.8729 395.517 55.307 395.64 54.8288C395.768 54.3506 395.974 53.9552 396.258 53.6427C396.542 53.3302 396.92 53.0982 397.394 52.9467C397.867 52.7952 398.452 52.7194 399.148 52.7194V54.1115C398.599 54.1115 398.166 54.1967 397.849 54.3672C397.536 54.5376 397.313 54.8028 397.181 55.1626C397.053 55.5177 396.989 55.9723 396.989 56.5263V59.3672C396.989 59.7365 396.939 60.0727 396.84 60.3757C396.745 60.6787 396.568 60.9391 396.307 61.1569C396.047 61.3747 395.675 61.5428 395.192 61.6612C394.714 61.7796 394.091 61.8388 393.324 61.8388ZM399.148 70.9013C398.452 70.9013 397.867 70.8255 397.394 70.674C396.92 70.5225 396.542 70.2905 396.258 69.978C395.974 69.6655 395.768 69.2701 395.64 68.7919C395.517 68.3137 395.455 67.7479 395.455 67.0944V64.8217C395.455 64.0452 395.296 63.4912 394.979 63.1598C394.667 62.8283 394.115 62.6626 393.324 62.6626V61.7819C394.091 61.7819 394.714 61.8411 395.192 61.9595C395.675 62.0779 396.047 62.246 396.307 62.4638C396.568 62.6816 396.745 62.942 396.84 63.245C396.939 63.548 396.989 63.8842 396.989 64.2535V67.0944C396.989 67.6484 397.053 68.103 397.181 68.4581C397.313 68.8132 397.536 69.076 397.849 69.2464C398.166 69.4216 398.599 69.5092 399.148 69.5092V70.9013ZM393.324 62.6626V60.9581H395V62.6626H393.324ZM440.087 61.7819V62.6626C439.297 62.6626 438.743 62.8283 438.426 63.1598C438.113 63.4912 437.957 64.0452 437.957 64.8217V67.0944C437.957 67.7479 437.893 68.3137 437.765 68.7919C437.642 69.2701 437.438 69.6655 437.154 69.978C436.87 70.2905 436.491 70.5225 436.018 70.674C435.544 70.8255 434.96 70.9013 434.264 70.9013V69.5092C434.813 69.5092 435.244 69.4216 435.556 69.2464C435.873 69.076 436.096 68.8132 436.224 68.4581C436.356 68.103 436.423 67.6484 436.423 67.0944V64.2535C436.423 63.8842 436.47 63.548 436.565 63.245C436.664 62.942 436.844 62.6816 437.105 62.4638C437.365 62.246 437.734 62.0779 438.212 61.9595C438.695 61.8411 439.32 61.7819 440.087 61.7819ZM434.264 52.7194C434.96 52.7194 435.544 52.7952 436.018 52.9467C436.491 53.0982 436.87 53.3302 437.154 53.6427C437.438 53.9552 437.642 54.3506 437.765 54.8288C437.893 55.307 437.957 55.8729 437.957 56.5263V58.799C437.957 59.5755 438.113 60.1295 438.426 60.4609C438.743 60.7924 439.297 60.9581 440.087 60.9581V61.8388C439.32 61.8388 438.695 61.7796 438.212 61.6612C437.734 61.5428 437.365 61.3747 437.105 61.1569C436.844 60.9391 436.664 60.6787 436.565 60.3757C436.47 60.0727 436.423 59.7365 436.423 59.3672V56.5263C436.423 55.9723 436.356 55.5177 436.224 55.1626C436.096 54.8028 435.873 54.5376 435.556 54.3672C435.244 54.1967 434.813 54.1115 434.264 54.1115V52.7194ZM440.087 60.9581V62.6626H438.411V60.9581H440.087Z" fill="#7D7C85"/>
<path d="M471.708 12.892V12.0114C472.498 12.0114 473.05 11.8456 473.362 11.5142C473.68 11.1828 473.838 10.6288 473.838 9.85227V7.57955C473.838 6.92614 473.9 6.36032 474.023 5.8821C474.151 5.40388 474.357 5.00852 474.641 4.69602C474.925 4.38352 475.304 4.15152 475.777 4C476.251 3.84848 476.835 3.77273 477.531 3.77273V5.16477C476.982 5.16477 476.549 5.25 476.232 5.42045C475.919 5.59091 475.697 5.85606 475.564 6.21591C475.436 6.57102 475.372 7.02557 475.372 7.57955V10.4205C475.372 10.7898 475.323 11.1259 475.223 11.429C475.129 11.732 474.951 11.9924 474.691 12.2102C474.43 12.428 474.058 12.5961 473.576 12.7145C473.097 12.8329 472.475 12.892 471.708 12.892ZM477.531 21.9545C476.835 21.9545 476.251 21.8788 475.777 21.7273C475.304 21.5758 474.925 21.3438 474.641 21.0312C474.357 20.7188 474.151 20.3234 474.023 19.8452C473.9 19.367 473.838 18.8011 473.838 18.1477V15.875C473.838 15.0985 473.68 14.5445 473.362 14.2131C473.05 13.8816 472.498 13.7159 471.708 13.7159V12.8352C472.475 12.8352 473.097 12.8944 473.576 13.0128C474.058 13.1312 474.43 13.2992 474.691 13.517C474.951 13.7348 475.129 13.9953 475.223 14.2983C475.323 14.6013 475.372 14.9375 475.372 15.3068V18.1477C475.372 18.7017 475.436 19.1563 475.564 19.5114C475.697 19.8665 475.919 20.1293 476.232 20.2997C476.549 20.4749 476.982 20.5625 477.531 20.5625V21.9545ZM471.708 13.7159V12.0114H473.384V13.7159H471.708ZM518.471 12.8352V13.7159C517.68 13.7159 517.126 13.8816 516.809 14.2131C516.496 14.5445 516.34 15.0985 516.34 15.875V18.1477C516.34 18.8011 516.276 19.367 516.148 19.8452C516.025 20.3234 515.822 20.7188 515.538 21.0312C515.253 21.3438 514.875 21.5758 514.401 21.7273C513.928 21.8788 513.343 21.9545 512.647 21.9545V20.5625C513.196 20.5625 513.627 20.4749 513.94 20.2997C514.257 20.1293 514.479 19.8665 514.607 19.5114C514.74 19.1563 514.806 18.7017 514.806 18.1477V15.3068C514.806 14.9375 514.853 14.6013 514.948 14.2983C515.047 13.9953 515.227 13.7348 515.488 13.517C515.748 13.2992 516.118 13.1312 516.596 13.0128C517.079 12.8944 517.704 12.8352 518.471 12.8352ZM512.647 3.77273C513.343 3.77273 513.928 3.84848 514.401 4C514.875 4.15152 515.253 4.38352 515.538 4.69602C515.822 5.00852 516.025 5.40388 516.148 5.8821C516.276 6.36032 516.34 6.92614 516.34 7.57955V9.85227C516.34 10.6288 516.496 11.1828 516.809 11.5142C517.126 11.8456 517.68 12.0114 518.471 12.0114V12.892C517.704 12.892 517.079 12.8329 516.596 12.7145C516.118 12.5961 515.748 12.428 515.488 12.2102C515.227 11.9924 515.047 11.732 514.948 11.429C514.853 11.1259 514.806 10.7898 514.806 10.4205V7.57955C514.806 7.02557 514.74 6.57102 514.607 6.21591C514.479 5.85606 514.257 5.59091 513.94 5.42045C513.627 5.25 513.196 5.16477 512.647 5.16477V3.77273ZM518.471 12.0114V13.7159H516.795V12.0114H518.471Z" fill="#7D7C85"/>
<path d="M471.708 61.8388V60.9581C472.498 60.9581 473.05 60.7924 473.362 60.4609C473.68 60.1295 473.838 59.5755 473.838 58.799V56.5263C473.838 55.8729 473.9 55.307 474.023 54.8288C474.151 54.3506 474.357 53.9552 474.641 53.6427C474.925 53.3302 475.304 53.0982 475.777 52.9467C476.251 52.7952 476.835 52.7194 477.531 52.7194V54.1115C476.982 54.1115 476.549 54.1967 476.232 54.3672C475.919 54.5376 475.697 54.8028 475.564 55.1626C475.436 55.5177 475.372 55.9723 475.372 56.5263V59.3672C475.372 59.7365 475.323 60.0727 475.223 60.3757C475.129 60.6787 474.951 60.9391 474.691 61.1569C474.43 61.3747 474.058 61.5428 473.576 61.6612C473.097 61.7796 472.475 61.8388 471.708 61.8388ZM477.531 70.9013C476.835 70.9013 476.251 70.8255 475.777 70.674C475.304 70.5225 474.925 70.2905 474.641 69.978C474.357 69.6655 474.151 69.2701 474.023 68.7919C473.9 68.3137 473.838 67.7479 473.838 67.0944V64.8217C473.838 64.0452 473.68 63.4912 473.362 63.1598C473.05 62.8283 472.498 62.6626 471.708 62.6626V61.7819C472.475 61.7819 473.097 61.8411 473.576 61.9595C474.058 62.0779 474.43 62.246 474.691 62.4638C474.951 62.6816 475.129 62.942 475.223 63.245C475.323 63.548 475.372 63.8842 475.372 64.2535V67.0944C475.372 67.6484 475.436 68.103 475.564 68.4581C475.697 68.8132 475.919 69.076 476.232 69.2464C476.549 69.4216 476.982 69.5092 477.531 69.5092V70.9013ZM471.708 62.6626V60.9581H473.384V62.6626H471.708ZM518.471 61.7819V62.6626C517.68 62.6626 517.126 62.8283 516.809 63.1598C516.496 63.4912 516.34 64.0452 516.34 64.8217V67.0944C516.34 67.7479 516.276 68.3137 516.148 68.7919C516.025 69.2701 515.822 69.6655 515.538 69.978C515.253 70.2905 514.875 70.5225 514.401 70.674C513.928 70.8255 513.343 70.9013 512.647 70.9013V69.5092C513.196 69.5092 513.627 69.4216 513.94 69.2464C514.257 69.076 514.479 68.8132 514.607 68.4581C514.74 68.103 514.806 67.6484 514.806 67.0944V64.2535C514.806 63.8842 514.853 63.548 514.948 63.245C515.047 62.942 515.227 62.6816 515.488 62.4638C515.748 62.246 516.118 62.0779 516.596 61.9595C517.079 61.8411 517.704 61.7819 518.471 61.7819ZM512.647 52.7194C513.343 52.7194 513.928 52.7952 514.401 52.9467C514.875 53.0982 515.253 53.3302 515.538 53.6427C515.822 53.9552 516.025 54.3506 516.148 54.8288C516.276 55.307 516.34 55.8729 516.34 56.5263V58.799C516.34 59.5755 516.496 60.1295 516.809 60.4609C517.126 60.7924 517.68 60.9581 518.471 60.9581V61.8388C517.704 61.8388 517.079 61.7796 516.596 61.6612C516.118 61.5428 515.748 61.3747 515.488 61.1569C515.227 60.9391 515.047 60.6787 514.948 60.3757C514.853 60.0727 514.806 59.7365 514.806 59.3672V56.5263C514.806 55.9723 514.74 55.5177 514.607 55.1626C514.479 54.8028 514.257 54.5376 513.94 54.3672C513.627 54.1967 513.196 54.1115 512.647 54.1115V52.7194ZM518.471 60.9581V62.6626H516.795V60.9581H518.471Z" fill="#7D7C85"/>
<path d="M550.091 12.892V12.0114C550.882 12.0114 551.433 11.8456 551.746 11.5142C552.063 11.1828 552.222 10.6288 552.222 9.85227V7.57955C552.222 6.92614 552.283 6.36032 552.406 5.8821C552.534 5.40388 552.74 5.00852 553.024 4.69602C553.308 4.38352 553.687 4.15152 554.161 4C554.634 3.84848 555.219 3.77273 555.915 3.77273V5.16477C555.366 5.16477 554.932 5.25 554.615 5.42045C554.303 5.59091 554.08 5.85606 553.947 6.21591C553.82 6.57102 553.756 7.02557 553.756 7.57955V10.4205C553.756 10.7898 553.706 11.1259 553.607 11.429C553.512 11.732 553.334 11.9924 553.074 12.2102C552.813 12.428 552.442 12.5961 551.959 12.7145C551.481 12.8329 550.858 12.892 550.091 12.892ZM555.915 21.9545C555.219 21.9545 554.634 21.8788 554.161 21.7273C553.687 21.5758 553.308 21.3438 553.024 21.0312C552.74 20.7188 552.534 20.3234 552.406 19.8452C552.283 19.367 552.222 18.8011 552.222 18.1477V15.875C552.222 15.0985 552.063 14.5445 551.746 14.2131C551.433 13.8816 550.882 13.7159 550.091 13.7159V12.8352C550.858 12.8352 551.481 12.8944 551.959 13.0128C552.442 13.1312 552.813 13.2992 553.074 13.517C553.334 13.7348 553.512 13.9953 553.607 14.2983C553.706 14.6013 553.756 14.9375 553.756 15.3068V18.1477C553.756 18.7017 553.82 19.1563 553.947 19.5114C554.08 19.8665 554.303 20.1293 554.615 20.2997C554.932 20.4749 555.366 20.5625 555.915 20.5625V21.9545ZM550.091 13.7159V12.0114H551.767V13.7159H550.091ZM596.854 12.8352V13.7159C596.063 13.7159 595.509 13.8816 595.192 14.2131C594.88 14.5445 594.723 15.0985 594.723 15.875V18.1477C594.723 18.8011 594.659 19.367 594.532 19.8452C594.409 20.3234 594.205 20.7188 593.921 21.0312C593.637 21.3438 593.258 21.5758 592.784 21.7273C592.311 21.8788 591.726 21.9545 591.03 21.9545V20.5625C591.579 20.5625 592.01 20.4749 592.323 20.2997C592.64 20.1293 592.863 19.8665 592.99 19.5114C593.123 19.1563 593.189 18.7017 593.189 18.1477V15.3068C593.189 14.9375 593.237 14.6013 593.331 14.2983C593.431 13.9953 593.611 13.7348 593.871 13.517C594.132 13.2992 594.501 13.1312 594.979 13.0128C595.462 12.8944 596.087 12.8352 596.854 12.8352ZM591.03 3.77273C591.726 3.77273 592.311 3.84848 592.784 4C593.258 4.15152 593.637 4.38352 593.921 4.69602C594.205 5.00852 594.409 5.40388 594.532 5.8821C594.659 6.36032 594.723 6.92614 594.723 7.57955V9.85227C594.723 10.6288 594.88 11.1828 595.192 11.5142C595.509 11.8456 596.063 12.0114 596.854 12.0114V12.892C596.087 12.892 595.462 12.8329 594.979 12.7145C594.501 12.5961 594.132 12.428 593.871 12.2102C593.611 11.9924 593.431 11.732 593.331 11.429C593.237 11.1259 593.189 10.7898 593.189 10.4205V7.57955C593.189 7.02557 593.123 6.57102 592.99 6.21591C592.863 5.85606 592.64 5.59091 592.323 5.42045C592.01 5.25 591.579 5.16477 591.03 5.16477V3.77273ZM596.854 12.0114V13.7159H595.178V12.0114H596.854Z" fill="#7D7C85"/>
<path d="M550.091 61.8388V60.9581C550.882 60.9581 551.433 60.7924 551.746 60.4609C552.063 60.1295 552.222 59.5755 552.222 58.799V56.5263C552.222 55.8729 552.283 55.307 552.406 54.8288C552.534 54.3506 552.74 53.9552 553.024 53.6427C553.308 53.3302 553.687 53.0982 554.161 52.9467C554.634 52.7952 555.219 52.7194 555.915 52.7194V54.1115C555.366 54.1115 554.932 54.1967 554.615 54.3672C554.303 54.5376 554.08 54.8028 553.947 55.1626C553.82 55.5177 553.756 55.9723 553.756 56.5263V59.3672C553.756 59.7365 553.706 60.0727 553.607 60.3757C553.512 60.6787 553.334 60.9391 553.074 61.1569C552.813 61.3747 552.442 61.5428 551.959 61.6612C551.481 61.7796 550.858 61.8388 550.091 61.8388ZM555.915 70.9013C555.219 70.9013 554.634 70.8255 554.161 70.674C553.687 70.5225 553.308 70.2905 553.024 69.978C552.74 69.6655 552.534 69.2701 552.406 68.7919C552.283 68.3137 552.222 67.7479 552.222 67.0944V64.8217C552.222 64.0452 552.063 63.4912 551.746 63.1598C551.433 62.8283 550.882 62.6626 550.091 62.6626V61.7819C550.858 61.7819 551.481 61.8411 551.959 61.9595C552.442 62.0779 552.813 62.246 553.074 62.4638C553.334 62.6816 553.512 62.942 553.607 63.245C553.706 63.548 553.756 63.8842 553.756 64.2535V67.0944C553.756 67.6484 553.82 68.103 553.947 68.4581C554.08 68.8132 554.303 69.076 554.615 69.2464C554.932 69.4216 555.366 69.5092 555.915 69.5092V70.9013ZM550.091 62.6626V60.9581H551.767V62.6626H550.091ZM596.854 61.7819V62.6626C596.063 62.6626 595.509 62.8283 595.192 63.1598C594.88 63.4912 594.723 64.0452 594.723 64.8217V67.0944C594.723 67.7479 594.659 68.3137 594.532 68.7919C594.409 69.2701 594.205 69.6655 593.921 69.978C593.637 70.2905 593.258 70.5225 592.784 70.674C592.311 70.8255 591.726 70.9013 591.03 70.9013V69.5092C591.579 69.5092 592.01 69.4216 592.323 69.2464C592.64 69.076 592.863 68.8132 592.99 68.4581C593.123 68.103 593.189 67.6484 593.189 67.0944V64.2535C593.189 63.8842 593.237 63.548 593.331 63.245C593.431 62.942 593.611 62.6816 593.871 62.4638C594.132 62.246 594.501 62.0779 594.979 61.9595C595.462 61.8411 596.087 61.7819 596.854 61.7819ZM591.03 52.7194C591.726 52.7194 592.311 52.7952 592.784 52.9467C593.258 53.0982 593.637 53.3302 593.921 53.6427C594.205 53.9552 594.409 54.3506 594.532 54.8288C594.659 55.307 594.723 55.8729 594.723 56.5263V58.799C594.723 59.5755 594.88 60.1295 595.192 60.4609C595.509 60.7924 596.063 60.9581 596.854 60.9581V61.8388C596.087 61.8388 595.462 61.7796 594.979 61.6612C594.501 61.5428 594.132 61.3747 593.871 61.1569C593.611 60.9391 593.431 60.6787 593.331 60.3757C593.237 60.0727 593.189 59.7365 593.189 59.3672V56.5263C593.189 55.9723 593.123 55.5177 592.99 55.1626C592.863 54.8028 592.64 54.5376 592.323 54.3672C592.01 54.1967 591.579 54.1115 591.03 54.1115V52.7194ZM596.854 60.9581V62.6626H595.178V60.9581H596.854Z" fill="#7D7C85"/>
</svg>
