<svg width="356" height="125" viewBox="0 0 356 125" fill="none" xmlns="http://www.w3.org/2000/svg">
<path d="M3.79964 9.86427V0H5.35278V9.86427H3.79964ZM0 5.7691V4.09517H9.15242V5.7691H0Z" fill="white"/>
<path d="M42.2399 9.86427V0H43.7931V9.86427H42.2399ZM38.4403 5.7691V4.09517H47.5927V5.7691H38.4403Z" fill="white"/>
<path d="M80.6797 9.86427V0H82.2328V9.86427H80.6797ZM76.88 5.7691V4.09517H86.0325V5.7691H76.88Z" fill="white"/>
<path d="M119.12 9.86427V0H120.673V9.86427H119.12ZM115.32 5.7691V4.09517H124.473V5.7691H115.32Z" fill="white"/>
<path d="M157.56 9.86427V0H159.113V9.86427H157.56ZM153.761 5.7691V4.09517H162.913V5.7691H153.761Z" fill="white"/>
<path d="M196 9.86427V0H197.553V9.86427H196ZM192.2 5.7691V4.09517H201.353V5.7691H192.2Z" fill="white"/>
<path d="M234.44 9.86427V0H235.993V9.86427H234.44ZM230.641 5.7691V4.09517H239.793V5.7691H230.641Z" fill="white"/>
<path d="M272.881 9.86427V0H274.434V9.86427H272.881ZM269.081 5.7691V4.09517H278.233V5.7691H269.081Z" fill="white"/>
<path d="M311.321 9.86427V0H312.874V9.86427H311.321ZM307.521 5.7691V4.09517H316.674V5.7691H307.521Z" fill="white"/>
<path d="M349.761 9.86427V0H351.314V9.86427H349.761ZM345.962 5.7691V4.09517H355.114V5.7691H345.962Z" fill="white"/>
<path d="M3.79964 48.7048V38.8406H5.35278V48.7048H3.79964ZM0 44.6097V42.9357H9.15242V44.6097H0Z" fill="white"/>
<path d="M42.2399 48.7048V38.8405H43.7931V48.7048H42.2399ZM38.4403 44.6096V42.9357H47.5927V44.6096H38.4403Z" fill="white"/>
<path d="M80.6797 48.7048V38.8405H82.2328V48.7048H80.6797ZM76.88 44.6096V42.9357H86.0325V44.6096H76.88Z" fill="white"/>
<path d="M119.12 48.7048V38.8405H120.673V48.7048H119.12ZM115.32 44.6096V42.9357H124.473V44.6096H115.32Z" fill="white"/>
<path d="M157.56 48.7048V38.8405H159.113V48.7048H157.56ZM153.761 44.6096V42.9357H162.913V44.6096H153.761Z" fill="white"/>
<path d="M196 48.7048V38.8405H197.553V48.7048H196ZM192.2 44.6096V42.9357H201.353V44.6096H192.2Z" fill="white"/>
<path d="M234.44 48.7048V38.8405H235.993V48.7048H234.44ZM230.641 44.6096V42.9357H239.793V44.6096H230.641Z" fill="white"/>
<path d="M272.881 48.7048V38.8405H274.434V48.7048H272.881ZM269.081 44.6096V42.9357H278.233V44.6096H269.081Z" fill="white"/>
<path d="M311.321 48.7048V38.8405H312.874V48.7048H311.321ZM307.521 44.6096V42.9357H316.674V44.6096H307.521Z" fill="white"/>
<path d="M349.761 48.7048V38.8405H351.314V48.7048H349.761ZM345.962 44.6096V42.9357H355.114V44.6096H345.962Z" fill="white"/>
<path d="M3.79964 86.8056V76.9413H5.35278V86.8056H3.79964ZM0 82.7104V81.0365H9.15242V82.7104H0Z" fill="white"/>
<path d="M42.2399 86.8056V76.9413H43.7931V86.8056H42.2399ZM38.4403 82.7104V81.0365H47.5927V82.7104H38.4403Z" fill="white"/>
<path d="M80.6797 86.8056V76.9413H82.2328V86.8056H80.6797ZM76.88 82.7104V81.0365H86.0325V82.7104H76.88Z" fill="white"/>
<path d="M119.12 86.8056V76.9413H120.673V86.8056H119.12ZM115.32 82.7104V81.0365H124.473V82.7104H115.32Z" fill="white"/>
<path d="M157.56 86.8056V76.9413H159.113V86.8056H157.56ZM153.761 82.7104V81.0365H162.913V82.7104H153.761Z" fill="white"/>
<path d="M196 86.8056V76.9413H197.553V86.8056H196ZM192.2 82.7104V81.0365H201.353V82.7104H192.2Z" fill="white"/>
<path d="M234.44 86.8056V76.9413H235.993V86.8056H234.44ZM230.641 82.7104V81.0365H239.793V82.7104H230.641Z" fill="white"/>
<path d="M272.881 86.8056V76.9413H274.434V86.8056H272.881ZM269.081 82.7104V81.0365H278.233V82.7104H269.081Z" fill="white"/>
<path d="M311.321 86.8056V76.9413H312.874V86.8056H311.321ZM307.521 82.7104V81.0365H316.674V82.7104H307.521Z" fill="white"/>
<path d="M349.761 86.8056V76.9413H351.314V86.8056H349.761ZM345.962 82.7104V81.0365H355.114V82.7104H345.962Z" fill="white"/>
<path d="M3.79964 124.917V115.052H5.35278V124.917H3.79964ZM0 120.822V119.148H9.15242V120.822H0Z" fill="white"/>
<path d="M42.2399 124.917V115.052H43.7931V124.917H42.2399ZM38.4403 120.821V119.147H47.5927V120.821H38.4403Z" fill="white"/>
<path d="M80.6797 124.917V115.052H82.2328V124.917H80.6797ZM76.88 120.821V119.147H86.0325V120.821H76.88Z" fill="white"/>
<path d="M119.12 124.917V115.052H120.673V124.917H119.12ZM115.32 120.821V119.147H124.473V120.821H115.32Z" fill="white"/>
<path d="M157.56 124.917V115.052H159.113V124.917H157.56ZM153.761 120.821V119.147H162.913V120.821H153.761Z" fill="white"/>
<path d="M196 124.917V115.052H197.553V124.917H196ZM192.2 120.821V119.147H201.353V120.821H192.2Z" fill="white"/>
<path d="M234.44 124.917V115.052H235.993V124.917H234.44ZM230.641 120.821V119.147H239.793V120.821H230.641Z" fill="white"/>
<path d="M272.881 124.917V115.052H274.434V124.917H272.881ZM269.081 120.821V119.147H278.233V120.821H269.081Z" fill="white"/>
<path d="M311.321 124.917V115.052H312.874V124.917H311.321ZM307.521 120.821V119.147H316.674V120.821H307.521Z" fill="white"/>
<path d="M349.761 124.917V115.052H351.314V124.917H349.761ZM345.962 120.821V119.147H355.114V120.821H345.962Z" fill="white"/>
</svg>
