<svg width="9" height="115" viewBox="0 0 9 115" fill="none" xmlns="http://www.w3.org/2000/svg">
<path d="M1.14115 9.7122V8.28465C1.96028 8.28465 2.52846 8.12129 2.8457 7.79459C3.16293 7.46788 3.32155 6.93995 3.32155 6.21078V4.64118C3.32155 3.76523 3.44229 3.06448 3.68377 2.53891C3.92998 2.0086 4.27089 1.60851 4.70649 1.33862C5.14683 1.06874 5.66767 0.888812 6.26899 0.798849C6.87032 0.708888 7.52846 0.663907 8.24343 0.663907V2.92243C7.68471 2.92243 7.25858 2.99582 6.96502 3.1426C6.67619 3.28465 6.47969 3.50718 6.37553 3.81021C6.27136 4.10851 6.21928 4.4873 6.21928 4.94658V7.02044C6.21928 7.38029 6.15299 7.72357 6.02041 8.05027C5.88784 8.37224 5.64163 8.6587 5.28178 8.90965C4.92193 9.15586 4.4082 9.35235 3.74058 9.49913C3.07297 9.64118 2.20649 9.7122 1.14115 9.7122ZM8.24343 18.6398C7.52846 18.6398 6.87032 18.5948 6.26899 18.5048C5.66767 18.4149 5.14683 18.2349 4.70649 17.965C4.27089 17.6952 3.92998 17.2951 3.68377 16.7648C3.44229 16.2392 3.32155 15.5384 3.32155 14.6625V13.0858C3.32155 12.3566 3.16293 11.8287 2.8457 11.502C2.52846 11.1753 1.96028 11.0119 1.14115 11.0119V9.58436C2.20649 9.58436 3.07297 9.65775 3.74058 9.80453C4.4082 9.94658 4.92193 10.1431 5.28178 10.394C5.64163 10.6402 5.88784 10.9267 6.02041 11.2534C6.15299 11.5754 6.21928 11.9186 6.21928 12.2832V14.3571C6.21928 14.8116 6.27136 15.1881 6.37553 15.4864C6.47969 15.7894 6.67619 16.0119 6.96502 16.154C7.25858 16.3007 7.68471 16.3741 8.24343 16.3741V18.6398ZM1.14115 11.0119V8.28465H3.69087V11.0119H1.14115ZM8.08718 105.584V107.012C7.27278 107.012 6.7046 107.175 6.38263 107.502C6.06539 107.829 5.90678 108.357 5.90678 109.086V110.662C5.90678 111.538 5.78367 112.239 5.53746 112.765C5.29598 113.295 4.95507 113.695 4.51473 113.965C4.07913 114.235 3.56066 114.415 2.95933 114.505C2.36274 114.595 1.7046 114.64 0.984902 114.64V112.374C1.54361 112.374 1.96738 112.301 2.25621 112.154C2.54977 112.012 2.74863 111.789 2.8528 111.486C2.95697 111.188 3.00905 110.812 3.00905 110.357V108.283C3.00905 107.919 3.07534 107.575 3.20791 107.253C3.34049 106.927 3.5867 106.64 3.94655 106.394C4.3064 106.143 4.82013 105.947 5.48774 105.805C6.15536 105.658 7.02183 105.584 8.08718 105.584ZM0.984902 96.6639C1.7046 96.6639 2.36274 96.7089 2.95933 96.7988C3.56066 96.8888 4.07913 97.0687 4.51473 97.3386C4.95507 97.6085 5.29598 98.0086 5.53746 98.5389C5.78367 99.0645 5.90678 99.7652 5.90678 100.641V102.211C5.90678 102.94 6.06539 103.468 6.38263 103.795C6.7046 104.121 7.27278 104.285 8.08718 104.285V105.712C7.02183 105.712 6.15536 105.641 5.48774 105.499C4.82013 105.352 4.3064 105.156 3.94655 104.91C3.5867 104.659 3.34049 104.372 3.20791 104.05C3.07534 103.724 3.00905 103.38 3.00905 103.02V100.947C3.00905 100.487 2.95697 100.109 2.8528 99.8102C2.74863 99.5072 2.54977 99.2846 2.25621 99.1426C1.96738 98.9958 1.54361 98.9224 0.984902 98.9224V96.6639ZM8.08718 104.285V107.012H5.53746V104.285H8.08718Z" fill="#D0082C"/>
</svg>
