<svg width="16" height="15" viewBox="0 0 16 15" fill="none" xmlns="http://www.w3.org/2000/svg">
<path d="M15.239 0.240067C15.0443 0.0559294 14.6936 0.0354697 14.1093 0.219607C13.7002 0.342366 10.0966 1.77455 6.90202 3.16581C4.03861 4.41385 1.70112 5.49822 1.42842 5.64144C1.11675 5.74374 0.454463 6.05063 0.415505 6.52121C0.396026 6.8281 0.649254 7.09408 1.11675 7.31914C1.62321 7.58511 3.86329 8.36258 4.33079 8.52626C4.48662 9.11959 5.4411 12.5159 5.49953 12.7205C5.55797 13.0274 5.75276 13.2115 5.85016 13.2729C5.86964 13.2729 5.88911 13.3138 5.92807 13.3343C5.96703 13.3752 6.04495 13.3957 6.12286 13.3957C6.22026 13.3957 6.35661 13.3343 6.47348 13.2525C7.07733 12.741 8.10972 11.5952 8.40191 11.2679C9.66805 12.3318 11.0705 13.498 11.2069 13.6412L11.2264 13.6617C11.538 13.9276 11.8692 14.0913 12.1614 14.0913C12.2588 14.0913 12.3562 14.0708 12.4535 14.0299C12.7847 13.9072 13.0379 13.5798 13.1158 13.1092C13.1158 13.0888 13.1353 13.0274 13.1743 12.9046C13.7197 10.3881 14.1677 8.15799 14.5183 6.29615C14.8495 4.45477 15.1417 2.67478 15.2975 1.71317C15.317 1.46765 15.3559 1.28351 15.3754 1.16076C15.4338 0.81294 15.4533 0.424205 15.239 0.240067ZM12.4925 3.08397L10.5251 5.00719C9.16159 6.33707 7.36952 8.05569 6.1813 9.18097C6.1813 9.18097 6.1813 9.18097 6.1813 9.20143L6.16182 9.22189C6.16182 9.22189 6.16182 9.24235 6.14234 9.24235C6.14234 9.26281 6.14234 9.26281 6.12286 9.28327V9.30373C6.12286 9.30373 6.12286 9.30373 6.12286 9.32419C6.04495 10.2858 5.88911 11.9226 5.83068 12.6591C5.83068 12.6591 5.83068 12.6591 5.83068 12.6387C5.77224 12.4341 4.85672 9.16051 4.66193 8.48534L12.4146 3.08397C12.4146 3.06351 12.4536 3.04305 12.473 3.02259C12.4925 3.02259 12.4925 3.00213 12.512 3.00213C12.5315 3.00213 12.5315 3.00213 12.5509 2.98167C12.5509 3.00213 12.5315 3.04305 12.4925 3.08397Z" fill="white"/>
</svg>
